HIERARCHY
ROOT Hips
{
	OFFSET 0.000000 0.000000 0.000000
	CHANNELS 6 Xposition Yposition Zposition Zrotation Yrotation Xrotation 
	JOINT LHipJoint
	{
		OFFSET 0.000000 0.000000 0.000000
		CHANNELS 3 Zrotation Yrotation Xrotation
		JOINT LeftUpLeg
		{
			OFFSET 1.363060 -1.794630 0.839290
			CHANNELS 3 Zrotation Yrotation Xrotation
			JOINT LeftLeg
			{
				OFFSET 2.448110 -6.726130 0.000000
				CHANNELS 3 Zrotation Yrotation Xrotation
				JOINT LeftFoot
				{
					OFFSET 2.562200 -7.039590 0.000000
					CHANNELS 3 Zrotation Yrotation Xrotation
					JOINT LeftToeBase
					{
						OFFSET 0.157640 -0.433110 2.322550
						CHANNELS 3 Zrotation Yrotation Xrotation
						End Site
						{
							OFFSET 0.000000 0.000000 0.000000
						}
					}
				}
			}
		}
	}
	JOINT RHipJoint
	{
		OFFSET 0.000000 0.000000 0.000000
		CHANNELS 3 Zrotation Yrotation Xrotation
		JOINT RightUpLeg
		{
			OFFSET -1.305520 -1.794630 0.839290
			CHANNELS 3 Zrotation Yrotation Xrotation
			JOINT RightLeg
			{
				OFFSET -2.542530 -6.985550 0.000000
				CHANNELS 3 Zrotation Yrotation Xrotation
				JOINT RightFoot
				{
					OFFSET -2.568260 -7.056230 0.000000
					CHANNELS 3 Zrotation Yrotation Xrotation
					JOINT RightToeBase
					{
						OFFSET -0.164730 -0.452590 2.363150
						CHANNELS 3 Zrotation Yrotation Xrotation
						End Site
						{
							OFFSET 0.000000 0.000000 0.000000
						}
					}
				}
			}
		}
	}
}
MOTION
Frames: 17
Frame Time: 0.008333
3.448485 17.020358 -2.366825 -146.136485 84.362619 -139.254873 -13.021552 5.535767 0.458475 -5.507672 13.072445 2.259486 0.083240 2.291137 34.625721 1.481627 -0.481263 27.906718 -1.039501 0.000000 -59.520900 6.785046 -1.711279 4.648464 15.185023 7.528966 -24.578674 4.225391 0.418598 7.559189 1.356123 7.457293 4.614980 1.003000 0.000001 -33.811100
3.617458 17.033292 -2.402810 -144.410278 83.799805 -137.741667 -13.244703 5.421743 0.225864 -4.563795 14.595381 0.918126 0.220549 2.325415 37.208383 1.739634 2.437574 27.843087 0.468700 -0.000000 -53.920500 6.636334 -1.844350 4.617344 15.888110 7.176576 -23.786018 4.319566 0.418733 7.753213 1.367615 7.617317 4.176295 0.992200 0.000000 -31.787800
3.782408 17.046106 -2.436271 -143.383649 83.232519 -136.908658 -13.425198 5.291077 -0.004915 -3.749373 15.959963 -0.428161 0.326621 2.377918 39.758393 1.986241 5.513148 27.215352 2.053201 0.000000 -48.083200 6.504209 -1.957531 4.590164 16.513550 6.860307 -22.990322 4.400931 0.430381 7.880758 1.363480 7.673329 3.702892 0.954900 0.000000 -29.901300
3.943568 17.059070 -2.467332 -142.924222 82.662333 -136.619533 -13.565362 5.151552 -0.223810 -3.073431 17.127566 -1.774929 0.407348 2.451750 42.240804 2.215753 8.542977 26.079513 3.544900 0.000000 -42.461300 6.388998 -2.052690 4.565872 17.061771 6.583182 -22.202268 4.466360 0.450970 7.944136 1.340676 7.594247 3.233060 0.891200 0.000000 -28.222000
4.101219 17.072435 -2.495860 -142.997786 82.097608 -136.837808 -13.662999 5.012750 -0.419969 -2.562116 18.061639 -3.115951 0.468818 2.546663 44.621333 2.423979 11.363351 24.538299 4.812800 -0.000000 -37.431100 6.299694 -2.130819 4.536845 17.521807 6.317822 -21.445866 4.510866 0.474029 7.976193 1.299933 7.385052 2.795144 0.808100 -0.000001 -26.911300
4.255600 17.086346 -2.522127 -143.502487 81.533859 -137.459440 -13.722875 4.880252 -0.586649 -2.211478 18.748591 -4.454918 0.517510 2.659514 46.882809 2.606315 13.845823 22.692321 5.768800 -0.000000 -33.136200 6.236162 -2.194287 4.502322 17.898114 6.065326 -20.729825 4.533300 0.497072 7.987581 1.239992 7.034589 2.403420 0.706900 0.000000 -25.954500
4.406944 17.100817 -2.546398 -144.374608 80.966983 -138.420231 -13.748182 4.758330 -0.718761 -2.019106 19.183575 -5.793059 0.558428 2.785291 49.009292 2.758863 15.917551 20.635552 6.378099 0.000000 -29.567300 6.200396 -2.245193 4.459388 18.193144 5.814929 -20.064957 4.532896 0.516753 7.999443 1.161596 6.552221 2.061210 0.591100 -0.000000 -25.362199
4.555402 17.115778 -2.568928 -145.557861 80.391204 -139.665475 -13.742128 4.649084 -0.813849 -1.976657 19.371077 -7.125604 0.594911 2.917844 50.984730 2.878787 17.550881 18.447913 6.648500 0.000000 -26.630800 6.193627 -2.285365 4.404163 18.411234 5.552434 -19.457635 4.510239 0.530339 8.033194 1.066763 5.960629 1.759838 0.464801 0.000000 -25.112200
4.701093 17.131046 -2.590237 -146.972002 79.795386 -141.117251 -13.710218 4.551228 -0.871750 -2.061258 19.324989 -8.446477 0.628693 3.050519 52.794627 2.964499 18.750062 16.190585 6.615500 -0.000000 -24.209800 6.212247 -2.316773 4.335475 18.564935 5.274696 -18.903547 4.468387 0.537653 8.095504 0.957242 5.280217 1.483814 0.330600 0.000000 -25.106400
4.844080 17.146351 -2.610836 -148.539863 79.168357 -142.702346 -13.657891 4.461807 -0.894029 -2.245267 19.064443 -9.744702 0.659850 3.177053 54.424639 3.016274 19.546380 13.908791 6.333300 0.000000 -22.190900 6.251565 -2.341097 4.251814 18.668648 4.976942 -18.393408 4.411539 0.539425 8.187470 0.835778 4.538358 1.215288 0.192300 0.000000 -25.245900
4.984388 17.161464 -2.631269 -150.182013 78.499514 -144.347216 -13.590823 4.376412 -0.884272 -2.496512 18.614131 -11.005002 0.687165 3.292022 55.860158 3.036619 19.991407 11.635750 5.864800 -0.000000 -20.501400 6.305602 -2.359807 4.151155 18.738672 4.653921 -17.911297 4.344912 0.537260 8.302743 0.705941 3.766070 0.937090 0.054900 0.000000 -25.433000
5.122045 17.176154 -2.652084 -151.819278 77.778992 -145.974877 -13.515239 4.289977 -0.845162 -2.781155 17.999448 -12.220362 0.708793 3.391100 57.092868 3.030443 20.151803 9.393905 5.272900 0.000001 -19.098900 6.366401 -2.374632 4.035279 18.793169 4.308910 -17.442545 4.274445 0.534059 8.424837 0.571113 2.987439 0.639738 -0.077500 -0.000000 -25.588000
5.257015 17.190248 -2.673755 -153.381592 77.002408 -147.522947 -13.436325 4.197474 -0.783256 -3.065572 17.254142 -13.376201 0.722241 3.471944 58.115856 3.004170 20.100933 7.184631 4.609600 -0.000001 -17.857799 6.427345 -2.386998 3.902455 18.848636 3.937459 -16.966672 4.205760 0.531932 8.537232 0.435859 2.232081 0.318311 -0.199300 0.000001 -25.655700
5.389358 17.203677 -2.696700 -154.814370 76.167622 -148.937525 -13.358816 4.094655 -0.701790 -3.322514 16.406851 -14.472733 0.725486 3.532969 58.929476 2.966487 19.919176 5.010135 3.918599 0.000000 -16.725800 6.481622 -2.398722 3.755934 18.919411 3.544176 -16.472286 4.143978 0.533497 8.619605 0.304123 1.519364 -0.021767 -0.307199 0.000000 -25.615000
5.519089 17.216483 -2.721199 -156.078498 75.277783 -150.181803 -13.286207 3.978048 -0.605228 -3.529783 15.488215 -15.510912 0.716891 3.574011 59.538728 2.926726 19.683008 2.861840 3.228000 0.000000 -15.608100 6.524231 -2.411407 3.598289 19.015674 3.132562 -15.950661 4.092978 0.540367 8.654762 0.179946 0.866235 -0.367399 -0.398800 -0.000000 -25.472500
5.646294 17.228775 -2.747398 -157.159869 74.341073 -151.242302 -13.220034 3.845616 -0.497283 -3.675240 14.525513 -16.494666 0.695347 3.595550 59.951455 2.894122 19.459650 0.727836 2.551400 -0.000000 -14.408300 6.553095 -2.426617 3.431745 19.140843 2.703151 -15.399521 4.054891 0.552745 8.634128 0.067567 0.289047 -0.700687 -0.472900 0.000000 -25.272900
5.771098 17.240791 -2.775283 -158.063416 73.368156 -152.122044 -13.160456 3.696511 -0.379922 -3.754983 13.540731 -17.433834 0.660571 3.598365 60.179311 2.877056 19.302320 -1.401264 1.891400 0.000000 -13.050200 6.568102 -2.445577 3.260385 19.291987 2.260921 -14.825273 4.030141 0.569971 8.555600 -0.029554 -0.202585 -0.998894 -0.530700 -0.000000 -25.079200
